<svg id="Camada_1" data-name="Camada 1" xmlns="http://www.w3.org/2000/svg" xmlns:xlink="http://www.w3.org/1999/xlink" viewBox="0 0 230.77 60.89"><defs><style>.cls-1{fill:none;}.cls-2{clip-path:url(#clip-path);}.cls-3{fill:#fff;}</style><clipPath id="clip-path" transform="translate(0 0)"><rect class="cls-1" width="230.77" height="60.9"/></clipPath></defs><title>logo_projedata</title><g class="cls-2"><path class="cls-3" d="M175.83,13.27c-1.34,0-2.68,0-4,0-.43,0-.52.12-.52.53,0,2.32,0,4.65,0,7,0,.26,0,.39-.35.32a17.36,17.36,0,0,0-6.14-.16,6.78,6.78,0,0,0-4,1.9,7.22,7.22,0,0,0-1.82,3.66,21.71,21.71,0,0,0,0,9.08,6.43,6.43,0,0,0,5.3,5.32,19.26,19.26,0,0,0,6.47.16,14.48,14.48,0,0,0,4.93-1.47c.22-.12.37-.23.38-.52,0-1,.13-1.91.13-2.87,0-3.53,0-7,0-10.57h0c0-4,0-7.93,0-11.89,0-.38-.11-.47-.47-.46m-4.52,17.54c0,1.68.07,3.68-.09,5.67,0,.23-.06.39-.3.46a8.68,8.68,0,0,1-4.41.22,3.42,3.42,0,0,1-2.62-2.78,16,16,0,0,1-.26-3.84,11.54,11.54,0,0,1,.34-3.36,3.28,3.28,0,0,1,2.73-2.36,9.66,9.66,0,0,1,4.11.12.56.56,0,0,1,.52.65c0,1.64,0,3.27,0,5.22" transform="translate(0 0)"/><path class="cls-3" d="M150.54,21.33a14.45,14.45,0,0,0-7.58-.25,6.29,6.29,0,0,0-5,5,20.16,20.16,0,0,0-.54,4.76,23.86,23.86,0,0,0,.21,3.34,9.56,9.56,0,0,0,1.59,4.28A7.26,7.26,0,0,0,145,41.2a33.2,33.2,0,0,0,5.18-.12c1.42-.14,2.84-.3,4.25-.55.2,0,.3-.08.27-.32-.13-1.05-.25-2.09-.35-3.14,0-.26-.13-.34-.39-.31-.81.11-1.63.2-2.44.27a34.33,34.33,0,0,1-5.55.17c-2.09-.14-3.31-1.21-3.52-3.11-.09-.86-.21-.73.64-.77a100.5,100.5,0,0,0,11.63-1c.32-.05.42-.16.44-.46a20.52,20.52,0,0,0-.45-5.85,6.12,6.12,0,0,0-4.14-4.63M150.15,29a.45.45,0,0,1-.09.29.37.37,0,0,1-.29.11c-.12,0-7,.47-7.32.51l-.22-.05,0-.16a8.85,8.85,0,0,1,.5-3.23A3,3,0,0,1,145,24.68a6.39,6.39,0,0,1,3,.09,2.68,2.68,0,0,1,1.91,1.9,7,7,0,0,1,.25,2.37" transform="translate(0 0)"/><path class="cls-3" d="M123.4,26.07a6.23,6.23,0,0,0-4.47-4.83,14.82,14.82,0,0,0-7.82,0A5.86,5.86,0,0,0,107,24.78a12.15,12.15,0,0,0-.83,3.56,23.07,23.07,0,0,0,.39,7.55,6.18,6.18,0,0,0,4.39,4.84,15.28,15.28,0,0,0,7.33.2,6.33,6.33,0,0,0,5.11-4.83,20.3,20.3,0,0,0,.56-5.61,17.93,17.93,0,0,0-.52-4.42m-4.79,8.73A2.84,2.84,0,0,1,116,37.16a6.86,6.86,0,0,1-2.85-.16,2.46,2.46,0,0,1-1.6-1.48,7.63,7.63,0,0,1-.51-2.62,23.66,23.66,0,0,1,.18-5.32A2.86,2.86,0,0,1,113,25a5.6,5.6,0,0,1,4,.06,3,3,0,0,1,1.63,2.38,15.43,15.43,0,0,1,.26,3.52,15.63,15.63,0,0,1-.33,3.8" transform="translate(0 0)"/><path class="cls-3" d="M132.64,21c-1.32,0-2.64,0-4,0-.49,0-.59.14-.59.61,0,6.46,0,12.92,0,19.38A9.87,9.87,0,0,1,128,42.2a2.55,2.55,0,0,1-2,2.32,15.4,15.4,0,0,1-1.62.31c-.28,0-.35.16-.37.42-.09,1-.19,1.91-.33,2.86-.05.37.07.45.41.47a14.82,14.82,0,0,0,4.26-.32,5.47,5.47,0,0,0,4.21-3.65,9.59,9.59,0,0,0,.52-3.09l0-9.86c0-3.4,0-6.79,0-10.19,0-.36-.07-.48-.46-.48" transform="translate(0 0)"/><path class="cls-3" d="M102.63,20.77a18.43,18.43,0,0,0-8.2,1.33,1.44,1.44,0,0,0-1,1.45c-.13,2.78,0,5.56-.08,7.89,0,3.33,0,6.21,0,9.08,0,.33.05.48.43.47,1.38,0,2.77,0,4.15,0,.33,0,.39-.11.39-.41,0-1.38,0-2.76,0-4.15,0-3.53-.09-7.07.08-10.6a.61.61,0,0,1,.5-.66,10,10,0,0,1,3.91-.38c.24,0,.42,0,.44-.3.07-.92.18-1.84.27-2.77s.07-.91-.85-.95" transform="translate(0 0)"/><path class="cls-3" d="M132.32,13.28a7.7,7.7,0,0,0-3.41,0,1.74,1.74,0,0,0-1.14,1.44,6.23,6.23,0,0,0,0,2.11,1.85,1.85,0,0,0,1.53,1.69,5.94,5.94,0,0,0,2.75,0,1.8,1.8,0,0,0,1.41-1.58,5.55,5.55,0,0,0,0-2.11,1.81,1.81,0,0,0-1.13-1.5" transform="translate(0 0)"/><path class="cls-3" d="M196.1,22.92a6.25,6.25,0,0,0-4.45-2.44,22.48,22.48,0,0,0-5.12-.12c-1.71.1-3.4.37-5.1.61-.16,0-.34,0-.31.31.13,1,.24,2.09.34,3.13,0,.24.12.34.37.3s.81-.1,1.21-.15a40.26,40.26,0,0,1,6.21-.31,2.77,2.77,0,0,1,2.88,2.17l.11.32,0,.25c.12.77,0,.63-.94.68l-4.13.24a12,12,0,0,0-2.78.48,5.18,5.18,0,0,0-3.8,3.57,9,9,0,0,0-.11,4.52,4.74,4.74,0,0,0,2.07,3.09,7.33,7.33,0,0,0,3.18,1.07,23,23,0,0,0,5.5,0,14.57,14.57,0,0,0,5.27-1.47.71.71,0,0,0,.43-.68c.25-4.08.12-8.17.11-12.26a5.65,5.65,0,0,0-1-3.29m-3.89,10.71c0,.85,0,1.68-.07,2.53a.39.39,0,0,1-.32.42,10,10,0,0,1-4.88.26A2,2,0,0,1,185.23,35a5,5,0,0,1,.15-2.15,2.12,2.12,0,0,1,1.56-1.42,19.85,19.85,0,0,1,5-.61c.27,0,.26.14.26.33Z" transform="translate(0 0)"/><path class="cls-3" d="M230.73,26.21a5.65,5.65,0,0,0-1-3.29,6.24,6.24,0,0,0-4.44-2.44,22.58,22.58,0,0,0-5.13-.12c-1.71.1-3.4.37-5.1.61-.16,0-.34,0-.31.31.13,1,.24,2.09.34,3.13,0,.24.12.34.37.3.4-.06.81-.1,1.21-.15a40.26,40.26,0,0,1,6.21-.31,2.77,2.77,0,0,1,2.88,2.17l.11.32,0,.25c.12.77,0,.63-.94.68l-4.13.24a12,12,0,0,0-2.78.48,5.18,5.18,0,0,0-3.8,3.57,9,9,0,0,0-.11,4.52,4.74,4.74,0,0,0,2.07,3.09,7.33,7.33,0,0,0,3.18,1.07,23,23,0,0,0,5.5,0,14.57,14.57,0,0,0,5.27-1.47.71.71,0,0,0,.43-.68c.25-4.08.12-8.17.11-12.26m-4.87,7.42c0,.85,0,1.68-.07,2.53a.39.39,0,0,1-.32.42,10,10,0,0,1-4.88.26A2,2,0,0,1,218.88,35a5,5,0,0,1,.15-2.15,2.11,2.11,0,0,1,1.57-1.42,19.72,19.72,0,0,1,5-.61c.27,0,.26.14.26.33Z" transform="translate(0 0)"/><path class="cls-3" d="M89.41,16.88a7.54,7.54,0,0,0-6.17-3.32c-3.25-.13-7.8-.06-11.06-.07a.77.77,0,0,0-.59.16.79.79,0,0,0-.17.61c0,.61,0,11.38-.06,26.37v.22a.22.22,0,0,0,.22.22h4.87a.22.22,0,0,0,.22-.22v-10a.21.21,0,0,1,.21-.21c.54,0,2.89,0,3.77,0a16.81,16.81,0,0,0,4.13-.3,7.42,7.42,0,0,0,5.53-4.93,10.49,10.49,0,0,0,.43-4.94,8,8,0,0,0-1.32-3.54m-4.26,6.23a2.65,2.65,0,0,1-2.51,2.32c-1.47.15-4.56.13-6.09.18V18.55l.07-.06c1.6,0,4.8-.19,6.38.18a2.81,2.81,0,0,1,2.23,2.65,7.65,7.65,0,0,1-.08,1.79" transform="translate(0 0)"/><path class="cls-3" d="M210.49,39.75V37.34c0-.6-.05-.51-.82-.48a4.42,4.42,0,0,1-1.4-.11,2.39,2.39,0,0,1-1-.48,1.65,1.65,0,0,1-.57-.88,6.42,6.42,0,0,1,0-1.22c0-.42,0-.82,0-1.23,0-.85,0-1.71.05-2.56,0-1.09.05-2.18.07-3.26,0-.36,0-.72,0-1.08s0-.56.25-.61l3.11-.12c.23,0,.09-.41.1-1.63l0-1.48c0-.21,0-.42,0-.62s0-.23,0-.28l-.2-.05h-2.6c-.3,0-.74.08-.78-.32,0-.11,0-.22,0-.34l0-1.5c0-.52,0-1,0-1.56s.07-.67-.17-.67-.8,0-1.1,0h-1c-.64,0-1.27,0-1.9,0a2.56,2.56,0,0,0-.38,0c-.1,0-.09.05-.1.15,0,.28,0,.61,0,.88,0,2.16,0,4.32,0,6.47s-.05,4.33-.08,6.5c0,.49,0,1,0,2.06a24.9,24.9,0,0,0,.13,3.86,4,4,0,0,0,.4,1.47,3.68,3.68,0,0,0,.55.84,4.17,4.17,0,0,0,1.07.93,3.93,3.93,0,0,0,.77.36,11.8,11.8,0,0,0,2.93.57c.7.06,1.61.11,2.67.11l.16-.08,0-.6c0-.3,0-.26,0-.68" transform="translate(0 0)"/><path class="cls-3" d="M41.15,29.8v.08c0,.12,0,.24-.07.36v0h0l0,.16h0v.09l-.05.21h0l0,0-.07.26,0,0v.06h0v.05h0l0,.05h0l0,.05h0v.2l0,.05v0h0l0,.05h0l0,.05h0V32l0,0h0l0,0h0l0,0h0l0,0h0l0,0h0l0,0v.11l0,0v.06h0l0,0h0l0,.05h0l0,0h0l0,.05h0l0,0v0l0,0v0l0,0h0l0,0v0l0,0h0l0,0h0l0,0h0l0,0h0l0,0a9.93,9.93,0,0,0-1.45-8.54c-.16-.24-.34-.47-.51-.69s-.38-.44-.58-.66A14.51,14.51,0,0,0,34,20.61a12.71,12.71,0,0,0-4-1.47A19,19,0,0,0,24.65,19,24.54,24.54,0,0,0,19,20.27a34.08,34.08,0,0,0-6.23,2.95A45,45,0,0,0,8,26.51l-1.24,1h0l-.24.2L0,19.92A51.22,51.22,0,0,1,15.67,10.7,31.62,31.62,0,0,1,31.73,9.14a21.08,21.08,0,0,1,3.41.92c.73,1,1.39,2,2,3A34.1,34.1,0,0,1,40,19.21a24.46,24.46,0,0,1,1.27,5.51,19.12,19.12,0,0,1-.15,5.08" transform="translate(0 0)"/><path class="cls-3" d="M41,0a51.18,51.18,0,0,1,9.21,15.67,31.63,31.63,0,0,1,1.57,16.06,21.38,21.38,0,0,1-.89,3.33l-.49.41A42.8,42.8,0,0,1,46,38.12,32.85,32.85,0,0,1,41.68,40a24.38,24.38,0,0,1-5.5,1.27A18.49,18.49,0,0,1,31,41.13,11.83,11.83,0,0,1,27.67,40a10,10,0,0,0,8.54-1.45l.68-.51c.23-.19.46-.38.67-.58h0A14.22,14.22,0,0,0,40.28,34a12.74,12.74,0,0,0,1.48-4,19.41,19.41,0,0,0,.16-5.34A24.5,24.5,0,0,0,40.63,19a35.45,35.45,0,0,0-3-6.23,48.5,48.5,0,0,0-4.28-6l-.2-.25Z" transform="translate(0 0)"/><path class="cls-3" d="M60.9,41a51.31,51.31,0,0,1-15.68,9.21,31.62,31.62,0,0,1-16.06,1.57,21.14,21.14,0,0,1-3.39-.92l-.34-.46A41.06,41.06,0,0,1,22.78,46a32.94,32.94,0,0,1-1.92-4.36,23.93,23.93,0,0,1-1.26-5.5A18.89,18.89,0,0,1,19.76,31a11.87,11.87,0,0,1,1.17-3.35,9.78,9.78,0,0,0-.4,2.78,10.09,10.09,0,0,0,.47,3,10.34,10.34,0,0,0,1.37,2.74c.17.23.34.46.52.68s.37.45.58.67a14,14,0,0,0,3.46,2.72,12.38,12.38,0,0,0,4,1.47,19,19,0,0,0,5.33.17,25,25,0,0,0,5.65-1.29,35.45,35.45,0,0,0,6.23-3,48.41,48.41,0,0,0,6-4.28l.25-.2Z" transform="translate(0 0)"/><path class="cls-3" d="M19.92,60.89A51.19,51.19,0,0,1,10.7,45.22,31.61,31.61,0,0,1,9.14,29.16a20.36,20.36,0,0,1,.92-3.41l.45-.32a42.22,42.22,0,0,1,4.35-2.65,32.83,32.83,0,0,1,4.35-1.92,23.9,23.9,0,0,1,5.51-1.26,18.9,18.9,0,0,1,5.16.16,12,12,0,0,1,3.35,1.17,9.83,9.83,0,0,0-2.78-.4,10.16,10.16,0,0,0-3,.47,10.43,10.43,0,0,0-2.73,1.37c-.24.17-.47.34-.69.52s-.45.38-.67.57h0a14.76,14.76,0,0,0-2.73,3.47,12.62,12.62,0,0,0-1.47,4A19,19,0,0,0,19,36.24a24.5,24.5,0,0,0,1.3,5.65,34.39,34.39,0,0,0,2.95,6.23,49.06,49.06,0,0,0,4.27,6l.2.25Z" transform="translate(0 0)"/></g></svg>